<svg xmlns="http://www.w3.org/2000/svg" width="20" height="20" viewBox="0 0 20 20" fill="none">
<path d="M8.71273 1.98572C9.27196 1.50753 10.1878 1.50753 10.7552 1.98572L12.0357 3.08798C12.2789 3.29871 12.7328 3.46891 13.0569 3.46891H14.4348C15.2939 3.46891 15.999 4.17404 15.999 5.03316V6.41099C15.999 6.72708 16.1692 7.18906 16.38 7.4322L17.4822 8.71278C17.9604 9.27201 17.9604 10.1879 17.4822 10.7552L16.38 12.0358C16.1692 12.2789 15.999 12.7328 15.999 13.057V14.4348C15.999 15.2939 15.2939 15.9991 14.4348 15.9991H13.0569C12.7409 15.9991 12.2789 16.1693 12.0357 16.38L10.7552 17.4823C10.1959 17.9605 9.28007 17.9605 8.71273 17.4823L7.43215 16.38C7.18901 16.1693 6.73513 15.9991 6.41094 15.9991H5.00879C4.14967 15.9991 3.44455 15.2939 3.44455 14.4348V13.0489C3.44455 12.7328 3.27435 12.2789 3.07172 12.0358L1.97756 10.7471C1.50748 10.1879 1.50748 9.28012 1.97756 8.72088L3.07172 7.4322C3.27435 7.18906 3.44455 6.73518 3.44455 6.41909V5.02505C3.44455 4.16593 4.14967 3.46081 5.00879 3.46081H6.41094C6.72703 3.46081 7.18901 3.2906 7.43215 3.07988L8.71273 1.98572Z" fill="#ff0000"/>
<path d="M8.74545 12.2951C8.58335 12.2951 8.42936 12.2303 8.31589 12.1168L6.3545 10.1554C6.11946 9.92038 6.11946 9.53135 6.3545 9.29631C6.58955 9.06127 6.97858 9.06127 7.21362 9.29631L8.74545 10.8281L12.2306 7.34303C12.4656 7.10799 12.8546 7.10799 13.0897 7.34303C13.3247 7.57807 13.3247 7.96711 13.0897 8.20215L9.17501 12.1168C9.06154 12.2303 8.90755 12.2951 8.74545 12.2951Z" fill="#000000"/>
</svg>