<svg xmlns="http://www.w3.org/2000/svg" xmlns:v="https://svgstorm.com" viewBox="0 0 60 60" width="60" height="60">
<g fill="transparent" fill-opacity="0.0" stroke="#bc1010" stroke-opacity="0.00" stroke-width="0.3"><path d=" M 0.00 22.00  C 2.16 17.10 5.04 11.87 9.00 8.00 C 9.25 7.75 9.72 7.23 10.00 7.00 C 12.97 4.58 15.55 3.30 19.00 2.00 C 19.27 1.87 19.65 1.09 20.00 1.00 C 20.47 0.88 21.53 1.12 22.00 1.00 C 22.23 0.66 22.00 0.00 22.00 0.00 L 0.00 0.00 L 0.00 22.00 Z" fill="#bc1010"/>
</g>
<g fill="transparent" fill-opacity="0.0" stroke="transparent" stroke-opacity="0.00" stroke-width="0.3"><path d=" M 22.00 1.00  C 22.35 0.91 22.84 0.34 23.00 0.00 L 22.00 0.00 C 22.00 0.00 22.23 0.66 22.00 1.00 Z" fill="#bc1010"/>
</g>
<g fill="transparent" fill-opacity="0.0" stroke="#bc1010" stroke-opacity="0.11" stroke-width="0.3"><path d=" M 22.00 1.00  C 21.53 1.12 20.47 0.88 20.00 1.00 C 19.74 1.11 19.35 1.87 19.00 2.00 C 15.55 3.30 12.97 4.58 10.00 7.00 C 9.75 7.25 9.29 7.77 9.00 8.00 C 5.04 11.87 2.16 17.10 0.00 22.00 L 0.00 38.00 C 3.71 47.64 11.18 56.99 22.00 59.00 C 22.35 59.07 22.84 59.67 23.00 60.00 L 37.00 60.00 C 37.17 59.67 37.65 59.09 38.00 59.00 C 38.47 58.88 39.53 59.12 40.00 59.00 C 40.26 58.89 40.65 58.13 41.00 58.00 C 43.88 56.91 46.43 55.88 49.00 54.00 C 49.69 53.34 50.29 52.62 51.00 52.00 C 54.76 47.72 57.92 43.82 59.00 38.00 C 59.07 37.65 59.67 37.17 60.00 37.00 L 60.00 23.00 C 59.67 22.84 59.09 22.35 59.00 22.00 C 58.88 21.53 59.12 20.47 59.00 20.00 C 58.89 19.74 58.13 19.35 58.00 19.00 C 56.72 15.61 55.36 12.90 53.00 10.00 C 52.75 9.75 52.23 9.29 52.00 9.00 C 48.11 5.03 43.56 2.03 38.00 1.00 C 37.65 0.93 37.17 0.34 37.00 0.00 L 23.00 0.00 C 22.84 0.34 22.35 0.91 22.00 1.00 M 21.00 26.00  C 21.00 25.99 20.00 26.00 20.00 26.00 C 17.68 27.29 19.43 20.40 23.08 19.08 C 26.74 17.77 32.78 15.37 37.00 18.00 C 34.96 20.37 36.00 21.86 37.00 25.00 C 35.04 26.99 30.92 24.66 30.00 28.00 C 33.27 27.30 34.81 31.24 38.00 31.00 C 38.34 36.08 31.92 37.97 37.00 41.00 C 34.21 42.01 31.11 42.18 28.00 42.00 C 29.90 40.09 30.31 37.67 30.00 35.00 C 27.30 32.26 21.98 30.15 21.00 26.00 M 20.00 28.00  C 20.81 28.81 19.69 31.77 18.29 30.63 C 16.90 29.50 19.10 27.10 20.00 28.00 M 42.00 36.00  C 37.62 35.71 42.24 31.26 42.00 29.00 C 43.86 30.97 42.00 33.49 42.00 36.00 M 20.00 35.00  C 20.74 35.74 19.18 34.18 20.00 35.00 M 27.00 42.00  C 21.45 41.18 27.83 36.61 27.00 42.00 Z" fill="#bc1010"/>
</g>
<g fill="transparent" fill-opacity="0.0" stroke="transparent" stroke-opacity="0.00" stroke-width="0.3"><path d=" M 38.00 1.00  C 37.94 0.99 38.00 0.00 38.00 0.00 L 37.00 0.00 C 37.17 0.34 37.65 0.93 38.00 1.00 Z" fill="#bc1010"/>
</g>
<g fill="transparent" fill-opacity="0.0" stroke="#bc1010" stroke-opacity="0.00" stroke-width="0.3"><path d=" M 38.00 1.00  C 43.56 2.03 48.11 5.03 52.00 9.00 C 52.25 9.25 52.77 9.72 53.00 10.00 C 55.36 12.90 56.72 15.61 58.00 19.00 C 58.13 19.27 58.91 19.65 59.00 20.00 C 59.12 20.47 58.88 21.53 59.00 22.00 C 59.34 22.23 60.00 22.00 60.00 22.00 L 60.00 0.00 L 38.00 0.00 C 38.00 0.00 37.94 0.99 38.00 1.00 Z" fill="#bc1010"/>
</g>
<g fill="transparent" fill-opacity="0.0" stroke="transparent" stroke-opacity="0.00" stroke-width="0.3"><path d=" M 19.00 2.00  C 19.35 1.87 19.74 1.11 20.00 1.00 C 19.65 1.09 19.27 1.87 19.00 2.00 Z" fill="#bc1010"/>
</g>
<g fill="transparent" fill-opacity="0.0" stroke="transparent" stroke-opacity="0.00" stroke-width="0.3"><path d=" M 9.00 8.00  C 9.29 7.77 9.75 7.25 10.00 7.00 C 9.72 7.23 9.25 7.75 9.00 8.00 Z" fill="#bc1010"/>
</g>
<g fill="transparent" fill-opacity="0.0" stroke="transparent" stroke-opacity="0.00" stroke-width="0.3"><path d=" M 53.00 10.00  C 52.77 9.72 52.25 9.25 52.00 9.00 C 52.23 9.29 52.75 9.75 53.00 10.00 Z" fill="#bc1010"/>
</g>
<g fill="transparent" fill-opacity="0.0" stroke="#bc1010" stroke-opacity="0.73" stroke-width="0.3"><path d=" M 20.00 26.00  C 20.80 23.63 22.25 23.96 21.00 26.00 C 21.98 30.15 27.30 32.26 30.00 35.00 C 30.31 37.67 29.90 40.09 28.00 42.00 C 31.11 42.18 34.21 42.01 37.00 41.00 C 31.92 37.97 38.34 36.08 38.00 31.00 C 34.81 31.24 33.27 27.30 30.00 28.00 C 30.92 24.66 35.04 26.99 37.00 25.00 C 36.00 21.86 34.96 20.37 37.00 18.00 C 32.78 15.37 26.74 17.77 23.08 19.08 C 19.43 20.40 17.68 27.29 20.00 26.00 M 35.00 23.00  C 30.86 25.69 26.08 23.91 23.00 28.00 C 22.92 25.45 26.20 23.43 24.00 21.00 C 27.86 17.98 33.37 18.20 35.00 23.00 M 29.00 28.00  C 26.45 30.82 24.90 25.80 29.00 28.00 M 31.00 29.00  C 31.74 29.74 30.18 28.18 31.00 29.00 M 33.00 37.00  C 32.37 37.59 32.55 38.07 32.00 37.00 C 31.50 34.21 29.77 33.40 29.00 31.00 C 32.02 28.82 33.08 33.05 36.00 33.00 C 35.46 34.66 33.44 35.33 33.00 37.00 Z" fill="#bc1010"/>
</g>
<g fill="transparent" fill-opacity="0.0" stroke="#bc1010" stroke-opacity="0.11" stroke-width="0.3"><path d=" M 35.00 23.00  C 33.37 18.20 27.86 17.98 24.00 21.00 C 26.20 23.43 22.92 25.45 23.00 28.00 C 26.08 23.91 30.86 25.69 35.00 23.00 Z" fill="#bc1010"/>
</g>
<g fill="transparent" fill-opacity="0.0" stroke="transparent" stroke-opacity="0.00" stroke-width="0.3"><path d=" M 59.00 20.00  C 58.91 19.65 58.13 19.27 58.00 19.00 C 58.13 19.35 58.89 19.74 59.00 20.00 Z" fill="#bc1010"/>
</g>
<g fill="transparent" fill-opacity="0.0" stroke="transparent" stroke-opacity="0.00" stroke-width="0.3"><path d=" M 60.00 23.00  L 60.00 22.00 C 60.00 22.00 59.34 22.23 59.00 22.00 C 59.09 22.35 59.67 22.84 60.00 23.00 Z" fill="#bc1010"/>
</g>
<g fill="transparent" fill-opacity="0.0" stroke="#bc1010" stroke-opacity="0.36" stroke-width="0.3"><path d=" M 20.00 26.00  C 20.00 26.00 21.00 25.99 21.00 26.00 C 22.25 23.96 20.80 23.63 20.00 26.00 Z" fill="#bc1010"/>
</g>
<g fill="transparent" fill-opacity="0.0" stroke="#bc1010" stroke-opacity="0.18" stroke-width="0.3"><path d=" M 29.00 28.00  C 24.90 25.80 26.45 30.82 29.00 28.00 Z" fill="#bc1010"/>
</g>
<g fill="transparent" fill-opacity="0.0" stroke="#bc1010" stroke-opacity="0.76" stroke-width="0.3"><path d=" M 20.00 28.00  C 19.10 27.10 16.90 29.50 18.29 30.63 C 19.69 31.77 20.81 28.81 20.00 28.00 Z" fill="#bc1010"/>
</g>
<g fill="transparent" fill-opacity="0.0" stroke="#bc1010" stroke-opacity="1.00" stroke-width="0.3"><path d=" M 31.00 29.00  C 30.18 28.18 31.74 29.74 31.00 29.00 Z" fill="#bc1010"/>
</g>
<g fill="transparent" fill-opacity="0.0" stroke="#bc1010" stroke-opacity="0.77" stroke-width="0.3"><path d=" M 42.00 36.00  C 42.00 33.49 43.86 30.97 42.00 29.00 C 42.24 31.26 37.62 35.71 42.00 36.00 Z" fill="#bc1010"/>
</g>
<g fill="transparent" fill-opacity="0.0" stroke="#bc1010" stroke-opacity="0.12" stroke-width="0.3"><path d=" M 32.00 37.00  C 32.02 37.09 33.00 37.00 33.00 37.00 C 33.44 35.33 35.46 34.66 36.00 33.00 C 33.08 33.05 32.02 28.82 29.00 31.00 C 29.77 33.40 31.50 34.21 32.00 37.00 Z" fill="#bc1010"/>
</g>
<g fill="transparent" fill-opacity="0.0" stroke="#bc1010" stroke-opacity="0.55" stroke-width="0.3"><path d=" M 20.00 35.00  C 19.18 34.18 20.74 35.74 20.00 35.00 Z" fill="#bc1010"/>
</g>
<g fill="transparent" fill-opacity="0.0" stroke="#bc1010" stroke-opacity="0.32" stroke-width="0.3"><path d=" M 33.00 37.00  C 33.00 37.00 32.02 37.09 32.00 37.00 C 32.55 38.07 32.37 37.59 33.00 37.00 Z" fill="#bc1010"/>
</g>
<g fill="transparent" fill-opacity="0.0" stroke="transparent" stroke-opacity="0.00" stroke-width="0.3"><path d=" M 59.00 38.00  C 59.01 37.94 60.00 38.00 60.00 38.00 L 60.00 37.00 C 59.67 37.17 59.07 37.65 59.00 38.00 Z" fill="#bc1010"/>
</g>
<g fill="transparent" fill-opacity="0.0" stroke="#bc1010" stroke-opacity="0.00" stroke-width="0.3"><path d=" M 0.00 60.00  L 22.00 60.00 C 22.00 59.50 22.00 59.00 22.00 59.00 C 11.18 56.99 3.71 47.64 0.00 38.00 L 0.00 60.00 Z" fill="#bc1010"/>
</g>
<g fill="transparent" fill-opacity="0.0" stroke="#bc1010" stroke-opacity="0.00" stroke-width="0.3"><path d=" M 51.00 52.00  C 50.23 52.87 49.93 53.32 49.00 54.00 C 46.43 55.88 43.88 56.91 41.00 58.00 C 40.73 58.13 40.35 58.91 40.00 59.00 C 39.53 59.12 38.47 58.88 38.00 59.00 C 37.77 59.34 38.00 60.00 38.00 60.00 L 60.00 60.00 L 60.00 38.00 C 60.00 38.00 59.01 37.94 59.00 38.00 C 57.92 43.82 54.76 47.72 51.00 52.00 Z" fill="#bc1010"/>
</g>
<g fill="transparent" fill-opacity="0.0" stroke="#bc1010" stroke-opacity="0.63" stroke-width="0.3"><path d=" M 27.00 42.00  C 27.83 36.61 21.45 41.18 27.00 42.00 Z" fill="#bc1010"/>
</g>
<g fill="transparent" fill-opacity="0.0" stroke="transparent" stroke-opacity="0.00" stroke-width="0.3"><path d=" M 49.00 54.00  C 49.93 53.32 50.23 52.87 51.00 52.00 C 50.29 52.62 49.69 53.34 49.00 54.00 Z" fill="#bc1010"/>
</g>
<g fill="transparent" fill-opacity="0.0" stroke="transparent" stroke-opacity="0.00" stroke-width="0.3"><path d=" M 40.00 59.00  C 40.35 58.91 40.73 58.13 41.00 58.00 C 40.65 58.13 40.26 58.89 40.00 59.00 Z" fill="#bc1010"/>
</g>
<g fill="transparent" fill-opacity="0.0" stroke="transparent" stroke-opacity="0.00" stroke-width="0.3"><path d=" M 22.00 60.00  L 23.00 60.00 C 22.84 59.67 22.35 59.07 22.00 59.00 C 22.00 59.00 22.00 59.50 22.00 60.00 Z" fill="#bc1010"/>
</g>
<g fill="transparent" fill-opacity="0.0" stroke="transparent" stroke-opacity="0.00" stroke-width="0.3"><path d=" M 37.00 60.00  L 38.00 60.00 C 38.00 60.00 37.77 59.34 38.00 59.00 C 37.65 59.09 37.17 59.67 37.00 60.00 Z" fill="#bc1010"/>
</g>
<g fill="#bc1010" fill-opacity="0.00" stroke="transparent">
<path d=" M 0.00 22.00  C 2.16 17.10 5.04 11.87 9.00 8.00 C 9.25 7.75 9.72 7.23 10.00 7.00 C 12.97 4.58 15.55 3.30 19.00 2.00 C 19.27 1.87 19.65 1.09 20.00 1.00 C 20.47 0.88 21.53 1.12 22.00 1.00 C 22.23 0.66 22.00 0.00 22.00 0.00 L 0.00 0.00 L 0.00 22.00 Z" fill="#bc1010"/>
</g>
<g fill="transparent" fill-opacity="0.00" stroke="transparent">
<path d=" M 22.00 1.00  C 22.35 0.91 22.84 0.34 23.00 0.00 L 22.00 0.00 C 22.00 0.00 22.23 0.66 22.00 1.00 Z" fill="#bc1010"/>
</g>
<g fill="#bc1010" fill-opacity="0.11" stroke="transparent">
<path d=" M 22.00 1.00  C 21.53 1.12 20.47 0.88 20.00 1.00 C 19.74 1.11 19.35 1.87 19.00 2.00 C 15.55 3.30 12.97 4.58 10.00 7.00 C 9.75 7.25 9.29 7.77 9.00 8.00 C 5.04 11.87 2.16 17.10 0.00 22.00 L 0.00 38.00 C 3.71 47.64 11.18 56.99 22.00 59.00 C 22.35 59.07 22.84 59.67 23.00 60.00 L 37.00 60.00 C 37.17 59.67 37.65 59.09 38.00 59.00 C 38.47 58.88 39.53 59.12 40.00 59.00 C 40.26 58.89 40.65 58.13 41.00 58.00 C 43.88 56.91 46.43 55.88 49.00 54.00 C 49.69 53.34 50.29 52.62 51.00 52.00 C 54.76 47.72 57.92 43.82 59.00 38.00 C 59.07 37.65 59.67 37.17 60.00 37.00 L 60.00 23.00 C 59.67 22.84 59.09 22.35 59.00 22.00 C 58.88 21.53 59.12 20.47 59.00 20.00 C 58.89 19.74 58.13 19.35 58.00 19.00 C 56.72 15.61 55.36 12.90 53.00 10.00 C 52.75 9.75 52.23 9.29 52.00 9.00 C 48.11 5.03 43.56 2.03 38.00 1.00 C 37.65 0.93 37.17 0.34 37.00 0.00 L 23.00 0.00 C 22.84 0.34 22.35 0.91 22.00 1.00 M 21.00 26.00  C 21.00 25.99 20.00 26.00 20.00 26.00 C 17.68 27.29 19.43 20.40 23.08 19.08 C 26.74 17.77 32.78 15.37 37.00 18.00 C 34.96 20.37 36.00 21.86 37.00 25.00 C 35.04 26.99 30.92 24.66 30.00 28.00 C 33.27 27.30 34.81 31.24 38.00 31.00 C 38.34 36.08 31.92 37.97 37.00 41.00 C 34.21 42.01 31.11 42.18 28.00 42.00 C 29.90 40.09 30.31 37.67 30.00 35.00 C 27.30 32.26 21.98 30.15 21.00 26.00 M 20.00 28.00  C 20.81 28.81 19.69 31.77 18.29 30.63 C 16.90 29.50 19.10 27.10 20.00 28.00 M 42.00 36.00  C 37.62 35.71 42.24 31.26 42.00 29.00 C 43.86 30.97 42.00 33.49 42.00 36.00 M 20.00 35.00  C 20.74 35.74 19.18 34.18 20.00 35.00 M 27.00 42.00  C 21.45 41.18 27.83 36.61 27.00 42.00 Z" fill="#bc1010"/>
</g>
<g fill="transparent" fill-opacity="0.00" stroke="transparent">
<path d=" M 38.00 1.00  C 37.94 0.99 38.00 0.00 38.00 0.00 L 37.00 0.00 C 37.17 0.34 37.65 0.93 38.00 1.00 Z" fill="#bc1010"/>
</g>
<g fill="#bc1010" fill-opacity="0.00" stroke="transparent">
<path d=" M 38.00 1.00  C 43.56 2.03 48.11 5.03 52.00 9.00 C 52.25 9.25 52.77 9.72 53.00 10.00 C 55.36 12.90 56.72 15.61 58.00 19.00 C 58.13 19.27 58.91 19.65 59.00 20.00 C 59.12 20.47 58.88 21.53 59.00 22.00 C 59.34 22.23 60.00 22.00 60.00 22.00 L 60.00 0.00 L 38.00 0.00 C 38.00 0.00 37.94 0.99 38.00 1.00 Z" fill="#bc1010"/>
</g>
<g fill="transparent" fill-opacity="0.00" stroke="transparent">
<path d=" M 19.00 2.00  C 19.35 1.87 19.74 1.11 20.00 1.00 C 19.65 1.09 19.27 1.87 19.00 2.00 Z" fill="#bc1010"/>
</g>
<g fill="transparent" fill-opacity="0.00" stroke="transparent">
<path d=" M 9.00 8.00  C 9.29 7.77 9.75 7.25 10.00 7.00 C 9.72 7.23 9.25 7.75 9.00 8.00 Z" fill="#bc1010"/>
</g>
<g fill="transparent" fill-opacity="0.00" stroke="transparent">
<path d=" M 53.00 10.00  C 52.77 9.72 52.25 9.25 52.00 9.00 C 52.23 9.29 52.75 9.75 53.00 10.00 Z" fill="#bc1010"/>
</g>
<g fill="#bc1010" fill-opacity="0.73" stroke="transparent">
<path d=" M 20.00 26.00  C 20.80 23.63 22.25 23.96 21.00 26.00 C 21.98 30.15 27.30 32.26 30.00 35.00 C 30.31 37.67 29.90 40.09 28.00 42.00 C 31.11 42.18 34.21 42.01 37.00 41.00 C 31.92 37.97 38.34 36.08 38.00 31.00 C 34.81 31.24 33.27 27.30 30.00 28.00 C 30.92 24.66 35.04 26.99 37.00 25.00 C 36.00 21.86 34.96 20.37 37.00 18.00 C 32.78 15.37 26.74 17.77 23.08 19.08 C 19.43 20.40 17.68 27.29 20.00 26.00 M 35.00 23.00  C 30.86 25.69 26.08 23.91 23.00 28.00 C 22.92 25.45 26.20 23.43 24.00 21.00 C 27.86 17.98 33.37 18.20 35.00 23.00 M 29.00 28.00  C 26.45 30.82 24.90 25.80 29.00 28.00 M 31.00 29.00  C 31.74 29.74 30.18 28.18 31.00 29.00 M 33.00 37.00  C 32.37 37.59 32.55 38.07 32.00 37.00 C 31.50 34.21 29.77 33.40 29.00 31.00 C 32.02 28.82 33.08 33.05 36.00 33.00 C 35.46 34.66 33.44 35.33 33.00 37.00 Z" fill="#bc1010"/>
</g>
<g fill="#bc1010" fill-opacity="0.11" stroke="transparent">
<path d=" M 35.00 23.00  C 33.37 18.20 27.86 17.98 24.00 21.00 C 26.20 23.43 22.92 25.45 23.00 28.00 C 26.08 23.91 30.86 25.69 35.00 23.00 Z" fill="#bc1010"/>
</g>
<g fill="transparent" fill-opacity="0.00" stroke="transparent">
<path d=" M 59.00 20.00  C 58.91 19.65 58.13 19.27 58.00 19.00 C 58.13 19.35 58.89 19.74 59.00 20.00 Z" fill="#bc1010"/>
</g>
<g fill="transparent" fill-opacity="0.00" stroke="transparent">
<path d=" M 60.00 23.00  L 60.00 22.00 C 60.00 22.00 59.34 22.23 59.00 22.00 C 59.09 22.35 59.67 22.84 60.00 23.00 Z" fill="#bc1010"/>
</g>
<g fill="#bc1010" fill-opacity="0.36" stroke="transparent">
<path d=" M 20.00 26.00  C 20.00 26.00 21.00 25.99 21.00 26.00 C 22.25 23.96 20.80 23.63 20.00 26.00 Z" fill="#bc1010"/>
</g>
<g fill="#bc1010" fill-opacity="0.18" stroke="transparent">
<path d=" M 29.00 28.00  C 24.90 25.80 26.45 30.82 29.00 28.00 Z" fill="#bc1010"/>
</g>
<g fill="#bc1010" fill-opacity="0.76" stroke="transparent">
<path d=" M 20.00 28.00  C 19.10 27.10 16.90 29.50 18.29 30.63 C 19.69 31.77 20.81 28.81 20.00 28.00 Z" fill="#bc1010"/>
</g>
<g fill="#bc1010" fill-opacity="1.00" stroke="transparent">
<path d=" M 31.00 29.00  C 30.18 28.18 31.74 29.74 31.00 29.00 Z" fill="#bc1010"/>
</g>
<g fill="#bc1010" fill-opacity="0.77" stroke="transparent">
<path d=" M 42.00 36.00  C 42.00 33.49 43.86 30.97 42.00 29.00 C 42.24 31.26 37.62 35.71 42.00 36.00 Z" fill="#bc1010"/>
</g>
<g fill="#bc1010" fill-opacity="0.12" stroke="transparent">
<path d=" M 32.00 37.00  C 32.02 37.09 33.00 37.00 33.00 37.00 C 33.44 35.33 35.46 34.66 36.00 33.00 C 33.08 33.05 32.02 28.82 29.00 31.00 C 29.77 33.40 31.50 34.21 32.00 37.00 Z" fill="#bc1010"/>
</g>
<g fill="#bc1010" fill-opacity="0.55" stroke="transparent">
<path d=" M 20.00 35.00  C 19.18 34.18 20.74 35.74 20.00 35.00 Z" fill="#bc1010"/>
</g>
<g fill="#bc1010" fill-opacity="0.32" stroke="transparent">
<path d=" M 33.00 37.00  C 33.00 37.00 32.02 37.09 32.00 37.00 C 32.55 38.07 32.37 37.59 33.00 37.00 Z" fill="#bc1010"/>
</g>
<g fill="transparent" fill-opacity="0.00" stroke="transparent">
<path d=" M 59.00 38.00  C 59.01 37.94 60.00 38.00 60.00 38.00 L 60.00 37.00 C 59.67 37.17 59.07 37.65 59.00 38.00 Z" fill="#bc1010"/>
</g>
<g fill="#bc1010" fill-opacity="0.00" stroke="transparent">
<path d=" M 0.00 60.00  L 22.00 60.00 C 22.00 59.50 22.00 59.00 22.00 59.00 C 11.18 56.99 3.71 47.64 0.00 38.00 L 0.00 60.00 Z" fill="#bc1010"/>
</g>
<g fill="#bc1010" fill-opacity="0.00" stroke="transparent">
<path d=" M 51.00 52.00  C 50.23 52.87 49.93 53.32 49.00 54.00 C 46.43 55.88 43.88 56.91 41.00 58.00 C 40.73 58.13 40.35 58.91 40.00 59.00 C 39.53 59.12 38.47 58.88 38.00 59.00 C 37.77 59.34 38.00 60.00 38.00 60.00 L 60.00 60.00 L 60.00 38.00 C 60.00 38.00 59.01 37.94 59.00 38.00 C 57.92 43.82 54.76 47.72 51.00 52.00 Z" fill="#bc1010"/>
</g>
<g fill="#bc1010" fill-opacity="0.63" stroke="transparent">
<path d=" M 27.00 42.00  C 27.83 36.61 21.45 41.18 27.00 42.00 Z" fill="#bc1010"/>
</g>
<g fill="transparent" fill-opacity="0.00" stroke="transparent">
<path d=" M 49.00 54.00  C 49.93 53.32 50.23 52.87 51.00 52.00 C 50.29 52.62 49.69 53.34 49.00 54.00 Z" fill="#bc1010"/>
</g>
<g fill="transparent" fill-opacity="0.00" stroke="transparent">
<path d=" M 40.00 59.00  C 40.35 58.91 40.73 58.13 41.00 58.00 C 40.65 58.13 40.26 58.89 40.00 59.00 Z" fill="#bc1010"/>
</g>
<g fill="transparent" fill-opacity="0.00" stroke="transparent">
<path d=" M 22.00 60.00  L 23.00 60.00 C 22.84 59.67 22.35 59.07 22.00 59.00 C 22.00 59.00 22.00 59.50 22.00 60.00 Z" fill="#bc1010"/>
</g>
<g fill="transparent" fill-opacity="0.00" stroke="transparent">
<path d=" M 37.00 60.00  L 38.00 60.00 C 38.00 60.00 37.77 59.34 38.00 59.00 C 37.65 59.09 37.17 59.67 37.00 60.00 Z" fill="#bc1010"/>
</g>
</svg>